<svg width="75" height="75" viewBox="0 0 75 75" fill="none" xmlns="http://www.w3.org/2000/svg">
<path d="M64.0561 21.6325C63.7136 20.411 63.0466 19.3051 62.1259 18.4324C61.1791 17.5328 60.0188 16.8893 58.7544 16.5627C54.0221 15.3154 35.063 15.3154 35.063 15.3154C27.1591 15.2254 19.2572 15.6209 11.4019 16.4997C10.1374 16.8505 8.97921 17.5083 8.03033 18.4147C7.098 19.3118 6.42269 20.418 6.06991 21.63C5.22248 26.1953 4.81074 30.8308 4.84024 35.4739C4.81 40.1129 5.22073 44.7469 6.06991 49.3178C6.41513 50.5248 7.08792 51.626 8.02277 52.5155C8.95763 53.405 10.1218 54.0475 11.4019 54.3877C16.1971 55.6325 35.063 55.6325 35.063 55.6325C42.9769 55.7226 50.8889 55.327 58.7544 54.4482C60.0188 54.1215 61.1791 53.4781 62.1259 52.5785C63.0463 51.7059 63.7125 50.5999 64.0535 49.3783C64.9231 44.8148 65.3459 40.1774 65.316 35.5319C65.3814 30.8667 64.9591 26.2074 64.0561 21.63V21.6325ZM29.0356 44.1018V26.8486L44.8097 35.4764L29.0356 44.1018Z" fill="#F4F2F3"/>
</svg>
