<svg width="59" height="58" viewBox="0 0 59 58" fill="none" xmlns="http://www.w3.org/2000/svg">
<path d="M28.5781 7.25C15.5115 7.25 4.91669 17.6653 4.91669 30.5104C4.91669 43.3556 15.5115 53.7708 28.5781 53.7708C41.6448 53.7708 52.2396 43.3556 52.2396 30.5104C52.2396 17.6653 41.6448 7.25 28.5781 7.25ZM39.9494 24.7836C39.9652 25.0276 39.9652 25.282 39.9652 25.5312C39.9652 33.1532 34.0604 41.9329 23.2702 41.9329C19.9428 41.9329 16.8583 40.9828 14.2598 39.3473C14.7351 39.3992 15.1894 39.42 15.6753 39.42C18.4217 39.42 20.9463 38.5062 22.9585 36.959C20.3811 36.907 18.2157 35.2456 17.4763 32.9611C18.3794 33.0909 19.1928 33.0909 20.1223 32.8572C18.7952 32.5922 17.6024 31.8836 16.7464 30.852C15.8905 29.8203 15.4243 28.5292 15.427 27.1979V27.1252C16.2034 27.5561 17.1171 27.8209 18.0731 27.8573C17.2695 27.3308 16.6104 26.6175 16.1544 25.7806C15.6983 24.9437 15.4594 24.0092 15.4587 23.0598C15.4587 21.9851 15.7439 21.0038 16.2562 20.1523C17.7293 21.9349 19.5674 23.3928 21.6512 24.4314C23.7349 25.4699 26.0177 26.0658 28.351 26.1802C27.5218 22.2602 30.5006 19.0879 34.0815 19.0879C35.7717 19.0879 37.2927 19.7836 38.3649 20.9051C39.6906 20.6611 40.9582 20.173 42.0884 19.5188C41.65 20.8532 40.7311 21.9799 39.511 22.6912C40.6941 22.5666 41.8349 22.2447 42.8912 21.793C42.0937 22.9456 41.0955 23.9684 39.9494 24.7836Z" fill="#F4F2F3"/>
</svg>
